# xmcd
#
# Track frame offsets:
#	150
#	13367
#	29795
#	43617
#	62020
#	76255
#	90402
#	106727
#	117765
#	131402
#	145020
#	161262
#	176762
#	192930
#
# Disc length: 2779 seconds
#
# Revision: 1
# Processed by: cddbd v1.4PL0 Copyright (c) Steve Scherf et al.
# Submitted via: EasyCDDAExtractor 5.0.6
#
DISCID=b10ad90e
DTITLE=Mococa and Paraiso - Terra Tombada
DYEAR=1900
DGENRE=
TTITLE0=Saco de Ouro
TTITLE1=Os Homens Não Devem Chorar
TTITLE2=O Céu Chorou Por Mim
TTITLE3=Doce De Cidra
TTITLE4=Saudade Da Minha Terra
TTITLE5=O Ipê E O Prisioneiro
TTITLE6=Porta Do Mundo
TTITLE7=Colcha De Retalhos
TTITLE8=Parede E Meia
TTITLE9=Ainda Ontem Chorei De Saudade
TTITLE10=Filho Adotivo
TTITLE11=O Carro E A Faculdade
TTITLE12=Terra Tombada
TTITLE13=Rio De Lágrimas
EXTD=
EXTT0=
EXTT1=
EXTT2=
EXTT3=
EXTT4=
EXTT5=
EXTT6=
EXTT7=
EXTT8=
EXTT9=
EXTT10=
EXTT11=
EXTT12=
EXTT13=
PLAYORDER=
